<svg xmlns="http://www.w3.org/2000/svg" xmlns:xlink="http://www.w3.org/1999/xlink" viewBox="0 0 364.47 364.48"><defs><style>.cls-1{fill:none;}.cls-2{clip-path:url(#clip-path);}.cls-3{fill:url(#Gradient_bez_nazwy);}</style><clipPath id="clip-path"><path class="cls-1" d="M21.09,222.79a30,30,0,0,1,30-30h50.49a18.26,18.26,0,0,0,15.82-9.13l14.73-25.51a13.81,13.81,0,0,1,23.92,0L220.2,269.23l40.1-69.45a14,14,0,0,1,12.13-7h40.95a30,30,0,0,1,30,30v25.44h-59a36.12,36.12,0,0,0-36.12,36.12v29a30,30,0,0,1-30,30h-72a30,30,0,0,1-30-30v-29a36.12,36.12,0,0,0-36.12-36.12h-59Zm0-81.11V116.24h59a36.12,36.12,0,0,0,36.12-36.11v-29a30,30,0,0,1,30-30h72a30,30,0,0,1,30,30v29a36.12,36.12,0,0,0,36.12,36.11h59v25.44a30,30,0,0,1-30,30H267a25.65,25.65,0,0,0-22.22,12.83l-12.6,21.82a13.82,13.82,0,0,1-23.92,0L144.1,95.24l-39.82,69a15,15,0,0,1-13,7.48H51.1a30,30,0,0,1-30-30M95.16,0V80.13a15,15,0,0,1-15,15H0V269.32H80.13a15,15,0,0,1,15,15v80.12H269.32V284.35a15,15,0,0,1,15-15h80.12V95.16H284.35a15,15,0,0,1-15-15V0Z"/></clipPath><linearGradient id="Gradient_bez_nazwy" x1="-987.76" y1="1049.43" x2="-986.76" y2="1049.43" gradientTransform="matrix(0, -551.01, -551.01, 0, 578435.4, -543907.04)" gradientUnits="userSpaceOnUse"><stop offset="0" stop-color="#6ec4c6"/><stop offset="1" stop-color="#0088a9"/></linearGradient></defs><title>Zasób 1</title><g id="Warstwa_2" data-name="Warstwa 2"><g id="Warstwa_1-2" data-name="Warstwa 1"><g class="cls-2"><rect class="cls-3" width="364.47" height="364.48"/></g></g></g></svg>